<svg id="aad57d15-31e2-4937-9885-8ff2260b758f" data-name="Layer 1" xmlns="http://www.w3.org/2000/svg" viewBox="0 0 141.46 140.57"><defs><style>.acc143be-a674-4b90-801a-74374d5b0601{fill:#010101;}.fd441738-e887-4ac8-abd0-603b20553644{fill:#ed2327;}</style></defs><path id="bdf4710d-ca71-443e-87ae-64f52cea77c9" data-name="Square Stroke" class="acc143be-a674-4b90-801a-74374d5b0601" d="M202.38,321.84V462.29h82.94c-.36-.33-.71-.65-1-1H203.38V322.84H279.3v-1Z" transform="translate(-202.38 -321.73)"/><g id="edab5f9b-191f-4993-a373-836d1d2b5663" data-name="FOUNDATION"><path class="fd441738-e887-4ac8-abd0-603b20553644" d="M280.42,387.4h4.63v2.22h-2.4v1.21H285v2.09h-2.3v3.76h-2.23Z" transform="translate(-202.38 -321.73)"/><path class="fd441738-e887-4ac8-abd0-603b20553644" d="M286.06,390.24a3,3,0,1,1,5.94,0v3.61a2.81,2.81,0,0,1-3,3.12,2.78,2.78,0,0,1-3-3.1Zm3.7.06c0-.63-.33-.88-.73-.88s-.74.25-.74.88v3.51c0,.62.33.87.74.87s.73-.25.73-.87Z" transform="translate(-202.38 -321.73)"/><path class="fd441738-e887-4ac8-abd0-603b20553644" d="M293.07,387.4h2.23v6.39c0,.65.27.88.66.88s.67-.23.67-.88V387.4h2.23v6.36c0,2.46-1.31,3.2-2.89,3.2s-2.9-.74-2.9-3.2Z" transform="translate(-202.38 -321.73)"/><path class="fd441738-e887-4ac8-abd0-603b20553644" d="M302.28,391.89h-.09v4.79h-2.08V387.4h2.36l1.66,4.33h.08V387.4h2.07v9.28H304Z" transform="translate(-202.38 -321.73)"/><path class="fd441738-e887-4ac8-abd0-603b20553644" d="M307.67,387.4h2.12c2.25,0,3.42.71,3.42,3.4v2.48c0,2.69-1.17,3.4-3.42,3.4h-2.12Zm3.29,3.11c0-.65-.23-.86-.75-.86h-.31v4.78h.31c.52,0,.75-.22.75-.85Z" transform="translate(-202.38 -321.73)"/><path class="fd441738-e887-4ac8-abd0-603b20553644" d="M315.79,387.4h2.59l2.12,9.28h-2.28L317.9,395h-1.75l-.32,1.72h-2.22Zm1.21,2.8-.47,2.81h1l-.46-2.81Z" transform="translate(-202.38 -321.73)"/><path class="fd441738-e887-4ac8-abd0-603b20553644" d="M320.28,387.4h5.44v2.17h-1.58v7.11h-2.23v-7.11h-1.63Z" transform="translate(-202.38 -321.73)"/><path class="fd441738-e887-4ac8-abd0-603b20553644" d="M326.61,386.45h2.26v.34h-2.26Zm0,.95h2.23v9.28h-2.23Z" transform="translate(-202.38 -321.73)"/><path class="fd441738-e887-4ac8-abd0-603b20553644" d="M330.07,390.24a3,3,0,1,1,5.94,0v3.61a3,3,0,1,1-5.94,0Zm3.71.06c0-.63-.33-.88-.74-.88s-.74.25-.74.88v3.51c0,.62.34.87.74.87s.74-.25.74-.87Z" transform="translate(-202.38 -321.73)"/><path class="fd441738-e887-4ac8-abd0-603b20553644" d="M339.39,391.89h-.09v4.79h-2.07V387.4h2.35l1.66,4.33h.09V387.4h2.06v9.28h-2.26Z" transform="translate(-202.38 -321.73)"/></g><g id="b60562f6-be87-47de-b42d-b1d96af1f631" data-name="E"><rect class="acc143be-a674-4b90-801a-74374d5b0601" x="124.02" y="101.93" width="13.96" height="13.96"/><path class="acc143be-a674-4b90-801a-74374d5b0601" d="M324.81,448.58V412.7h18.63V399H311v1.86a16.4,16.4,0,0,1,3.22,2.54c4.12,4.21,6.12,10.74,5.95,19.42v.49H311V441h9.16v.48c.22,9.22-1.82,16.09-6.05,20.43l-.4.37h30.12V448.58Z" transform="translate(-202.38 -321.73)"/></g><path id="a0a72261-8904-4cb0-86da-bb1eefc01638" data-name="C" d="M312.25,462.29c.4-.34.79-.68,1.16-1.06,4-4.06,5.9-10.52,5.77-19.21H304.91c.07,4.43-.48,7-1.77,8.34a4.23,4.23,0,0,1-3.24,1.16c-2.23,0-4.89-1.08-4.89-6.22V420.18c0-4.13,1.65-6.23,4.89-6.23a4.39,4.39,0,0,1,3.33,1.22c1.2,1.24,1.74,3.52,1.68,7.13h14.27c.08-8.16-1.83-14.28-5.68-18.21-4.08-4.17-9.59-5-13.5-5-17.93,0-19.86,14.5-19.86,20.74v25.8c0,8.63,2.87,13.72,6.67,16.7Z" transform="translate(-202.38 -321.73)"/><path id="b501bda6-ceb9-41ee-9060-c527ea33fc3e" data-name="A" class="acc143be-a674-4b90-801a-74374d5b0601" d="M329,321.73H312.5v15.42h-4.4l-1.73,7.34h5.45v15.45h-9.09l-5.9,25.1H311.2l2.24-11.93h12.95L328.62,385h14.87Zm-13.09,38.89,3.46-20.49h1.43l3.37,20.49Z" transform="translate(-202.38 -321.73)"/><polygon id="b0697e2d-d007-4a69-9062-338c3fa5cdd3" data-name="F" class="acc143be-a674-4b90-801a-74374d5b0601" points="108.44 23.77 92.44 23.77 92.44 14.42 109.12 14.42 109.12 0 77.91 0 77.91 63.31 92.44 63.31 92.44 37.22 108.44 37.22 108.44 23.77"/></svg>